<svg width="500" height="300" viewBox="0 0 500 300" fill="none" xmlns="http://www.w3.org/2000/svg">
<path d="M80.418 52.9785H95.3496V84.8828H129.617V52.9785H144.549V130H129.617V98.0957H103.943L95.3496 89.502H80.418V52.9785ZM80.418 98.0957H95.3496V130H80.418V98.0957ZM183.758 66.1914C199.388 66.1914 212.869 77.2559 215.877 92.6172V130H200.945V92.6172C198.313 85.6885 191.17 81.123 183.758 81.123C173.929 81.123 165.926 89.126 165.926 98.9551C165.926 108.784 173.929 116.787 183.758 116.787C188.323 116.787 192.728 115.015 196.058 111.846V129.248C192.137 130.859 187.947 131.719 183.758 131.719C165.657 131.719 150.994 117.056 150.994 98.9551C150.994 80.8545 165.657 66.1914 183.758 66.1914ZM223.396 52.9785H238.328V71.0791C243.377 67.9639 249.285 66.1914 255.516 66.1914C273.616 66.1914 288.279 80.8545 288.279 98.9551C288.279 117.056 273.616 131.719 255.516 131.719C251.326 131.719 247.137 130.859 243.27 129.248V111.846C246.546 115.015 250.95 116.787 255.516 116.787C265.398 116.787 273.348 108.784 273.348 98.9551C273.348 89.126 265.398 81.123 255.516 81.123C248.157 81.123 240.96 85.6885 238.328 92.6172V130H223.396V92.6172V52.9785ZM295.047 47.6074H309.334V61.8945H295.047V47.6074ZM294.725 69.6289H309.656V130H294.725V69.6289ZM322.225 58.833H337.156V75.6445H343.172L351.766 83.8086V89.7168H337.156V112.275C337.156 115.068 338.768 116.787 341.453 116.787H355.955L364.549 125.381V130H341.453C328.67 130 322.225 124.897 322.225 112.275V89.7168H316.639V75.6445H322.225V58.833ZM398.387 66.1914C404.725 66.1914 410.901 68.0176 416.219 71.4551V92.9395C416.219 83.8623 408.216 81.123 398.387 81.123C389.31 81.123 385.711 85.4736 386.57 89.502C388.88 96.1084 417.347 91.4355 420.516 103.252C424.544 118.398 410.149 131.719 392.049 131.719C385.711 131.719 375.237 129.893 369.92 126.455V104.971C369.92 114.8 382.22 116.787 392.049 116.787C401.878 116.787 406.604 112.222 405.584 108.408C403.597 100.996 376.097 107.012 371.639 94.6582C367.396 79.5654 380.286 66.1914 398.387 66.1914ZM33.5283 162.979H59.2021H74.1338H91.2139H99.8076V176.191H74.1338V240H59.2021V176.191H42.1221L33.5283 167.598V162.979ZM106.79 177.91H121.722H155.13V192.842H130.315L121.722 184.248H106.79V177.91ZM106.79 192.842H121.722V240H106.79V192.842ZM190.579 176.191C206.209 176.191 219.69 187.256 222.698 202.617V240H207.767V202.617C205.135 195.688 197.991 191.123 190.579 191.123C180.75 191.123 172.747 199.126 172.747 208.955C172.747 218.784 180.75 226.787 190.579 226.787C195.145 226.787 199.549 225.015 202.879 221.846V239.248C198.958 240.859 194.769 241.719 190.579 241.719C172.479 241.719 157.815 227.056 157.815 208.955C157.815 190.854 172.479 176.191 190.579 176.191ZM260.833 176.191C266.15 176.191 273.079 176.621 277.806 179.092V198.857C274.583 193.54 267.063 191.123 260.833 191.123C251.004 191.123 243.001 199.126 243.001 208.955C243.001 218.784 251.004 226.787 260.833 226.787C267.063 226.787 274.583 224.37 277.806 219.053V238.818C273.079 241.289 266.15 241.719 260.833 241.719C242.732 241.719 228.069 227.056 228.069 208.955C228.069 190.854 242.732 176.191 260.833 176.191ZM286.399 162.979H301.331V200.845L322.977 177.91H340.057L319.861 198.105L340.057 240H322.977L309.441 208.579L301.331 216.689V240H286.399V162.979ZM376.634 176.191C392.264 176.191 405.745 187.256 408.753 202.617C409.505 207.29 409.612 213.091 409.612 217.495L382.112 217.549L373.519 208.955H358.802C358.802 218.784 366.805 226.787 376.634 226.787C381.199 226.787 385.604 225.015 388.934 221.846V239.248C385.013 240.859 380.823 241.719 376.634 241.719C358.533 241.719 343.87 227.056 343.87 208.955C343.87 190.854 358.533 176.191 376.634 176.191ZM376.634 191.123C369.275 191.177 362.669 195.742 360.037 202.617H373.519H393.284C390.652 195.688 384.046 191.123 376.634 191.123ZM416.058 177.91H430.989H464.397V192.842H439.583L430.989 184.248H416.058V177.91ZM416.058 192.842H430.989V240H416.058V192.842Z" fill="#A0B5DF"/>
</svg>
